<svg width="60" height="60" viewBox="0 0 60 60" fill="none" xmlns="http://www.w3.org/2000/svg">
<path d="M51.6668 13.333H36.6667V54.9997H55.0001V16.6663C55.0001 15.7823 54.6489 14.9344 54.0238 14.3093C53.3987 13.6842 52.5508 13.333 51.6668 13.333ZM43.3334 41.6663H40.0001V38.333H43.3334V41.6663ZM43.3334 33.333H40.0001V29.9997H43.3334V33.333ZM43.3334 24.9997H40.0001V21.6663H43.3334V24.9997ZM50.0001 41.6663H46.6668V38.333H50.0001V41.6663ZM50.0001 33.333H46.6668V29.9997H50.0001V33.333ZM50.0001 24.9997H46.6668V21.6663H50.0001V24.9997Z" fill="#BFBEFC"/>
<path d="M29.8001 5H10.2001C9.26298 5 8.36427 5.37226 7.70164 6.03489C7.03901 6.69752 6.66675 7.59624 6.66675 8.53333V55H15.0001V50H25.0001V55H33.3334V8.53333C33.3334 7.59624 32.9612 6.69752 32.2985 6.03489C31.6359 5.37226 30.7372 5 29.8001 5ZM15.0001 41.6667H11.6667V38.3333H15.0001V41.6667ZM15.0001 33.3333H11.6667V30H15.0001V33.3333ZM15.0001 25H11.6667V21.6667H15.0001V25ZM15.0001 16.6667H11.6667V13.3333H15.0001V16.6667ZM21.6667 41.6667H18.3334V38.3333H21.6667V41.6667ZM21.6667 33.3333H18.3334V30H21.6667V33.3333ZM21.6667 25H18.3334V21.6667H21.6667V25ZM21.6667 16.6667H18.3334V13.3333H21.6667V16.6667ZM28.3334 41.6667H25.0001V38.3333H28.3334V41.6667ZM28.3334 33.3333H25.0001V30H28.3334V33.3333ZM28.3334 25H25.0001V21.6667H28.3334V25ZM28.3334 16.6667H25.0001V13.3333H28.3334V16.6667Z" fill="#610BEF"/>
</svg>
