<svg width="352" height="55" viewBox="0 0 352 55" fill="none" xmlns="http://www.w3.org/2000/svg">
<path d="M95.2266 36.04H84.7466L83.0666 41H75.9066L86.0666 12.92H93.9866L104.147 41H96.9066L95.2266 36.04ZM93.4666 30.76L89.9866 20.48L86.5466 30.76H93.4666ZM115.079 21.84C115.745 20.8 116.665 19.96 117.839 19.32C119.012 18.68 120.385 18.36 121.959 18.36C123.799 18.36 125.465 18.8267 126.959 19.76C128.452 20.6933 129.625 22.0267 130.479 23.76C131.359 25.4933 131.799 27.5067 131.799 29.8C131.799 32.0933 131.359 34.12 130.479 35.88C129.625 37.6133 128.452 38.96 126.959 39.92C125.465 40.8533 123.799 41.32 121.959 41.32C120.412 41.32 119.039 41 117.839 40.36C116.665 39.72 115.745 38.8933 115.079 37.88V51.64H108.239V18.68H115.079V21.84ZM124.839 29.8C124.839 28.0933 124.359 26.76 123.399 25.8C122.465 24.8133 121.305 24.32 119.919 24.32C118.559 24.32 117.399 24.8133 116.439 25.8C115.505 26.7867 115.039 28.1333 115.039 29.84C115.039 31.5467 115.505 32.8933 116.439 33.88C117.399 34.8667 118.559 35.36 119.919 35.36C121.279 35.36 122.439 34.8667 123.399 33.88C124.359 32.8667 124.839 31.5067 124.839 29.8ZM143.227 21.84C143.894 20.8 144.814 19.96 145.987 19.32C147.161 18.68 148.534 18.36 150.107 18.36C151.947 18.36 153.614 18.8267 155.107 19.76C156.601 20.6933 157.774 22.0267 158.627 23.76C159.507 25.4933 159.947 27.5067 159.947 29.8C159.947 32.0933 159.507 34.12 158.627 35.88C157.774 37.6133 156.601 38.96 155.107 39.92C153.614 40.8533 151.947 41.32 150.107 41.32C148.561 41.32 147.187 41 145.987 40.36C144.814 39.72 143.894 38.8933 143.227 37.88V51.64H136.387V18.68H143.227V21.84ZM152.987 29.8C152.987 28.0933 152.507 26.76 151.547 25.8C150.614 24.8133 149.454 24.32 148.067 24.32C146.707 24.32 145.547 24.8133 144.587 25.8C143.654 26.7867 143.187 28.1333 143.187 29.84C143.187 31.5467 143.654 32.8933 144.587 33.88C145.547 34.8667 146.707 35.36 148.067 35.36C149.427 35.36 150.587 34.8667 151.547 33.88C152.507 32.8667 152.987 31.5067 152.987 29.8ZM178.136 18.44C180.749 18.44 182.829 19.2933 184.376 21C185.949 22.68 186.736 25 186.736 27.96V41H179.936V28.88C179.936 27.3867 179.549 26.2267 178.776 25.4C178.002 24.5733 176.962 24.16 175.656 24.16C174.349 24.16 173.309 24.5733 172.536 25.4C171.762 26.2267 171.376 27.3867 171.376 28.88V41H164.536V18.68H171.376V21.64C172.069 20.6533 173.002 19.88 174.176 19.32C175.349 18.7333 176.669 18.44 178.136 18.44ZM191.129 29.8C191.129 27.5067 191.555 25.4933 192.409 23.76C193.289 22.0267 194.475 20.6933 195.969 19.76C197.462 18.8267 199.129 18.36 200.969 18.36C202.542 18.36 203.915 18.68 205.089 19.32C206.289 19.96 207.209 20.8 207.849 21.84V18.68H214.689V41H207.849V37.84C207.182 38.88 206.249 39.72 205.049 40.36C203.875 41 202.502 41.32 200.929 41.32C199.115 41.32 197.462 40.8533 195.969 39.92C194.475 38.96 193.289 37.6133 192.409 35.88C191.555 34.12 191.129 32.0933 191.129 29.8ZM207.849 29.84C207.849 28.1333 207.369 26.7867 206.409 25.8C205.475 24.8133 204.329 24.32 202.969 24.32C201.609 24.32 200.449 24.8133 199.489 25.8C198.555 26.76 198.089 28.0933 198.089 29.8C198.089 31.5067 198.555 32.8667 199.489 33.88C200.449 34.8667 201.609 35.36 202.969 35.36C204.329 35.36 205.475 34.8667 206.409 33.88C207.369 32.8933 207.849 31.5467 207.849 29.84ZM249.117 18.44C251.891 18.44 254.091 19.28 255.717 20.96C257.371 22.64 258.197 24.9733 258.197 27.96V41H251.397V28.88C251.397 27.44 251.011 26.3333 250.237 25.56C249.491 24.76 248.451 24.36 247.117 24.36C245.784 24.36 244.731 24.76 243.957 25.56C243.211 26.3333 242.837 27.44 242.837 28.88V41H236.037V28.88C236.037 27.44 235.651 26.3333 234.877 25.56C234.131 24.76 233.091 24.36 231.757 24.36C230.424 24.36 229.371 24.76 228.597 25.56C227.851 26.3333 227.477 27.44 227.477 28.88V41H220.637V18.68H227.477V21.48C228.171 20.5467 229.077 19.8133 230.197 19.28C231.317 18.72 232.584 18.44 233.997 18.44C235.677 18.44 237.171 18.8 238.477 19.52C239.811 20.24 240.851 21.2667 241.597 22.6C242.371 21.3733 243.424 20.3733 244.757 19.6C246.091 18.8267 247.544 18.44 249.117 18.44ZM285.021 29.48C285.021 30.12 284.981 30.7867 284.901 31.48H269.421C269.528 32.8667 269.968 33.9333 270.741 34.68C271.541 35.4 272.514 35.76 273.661 35.76C275.368 35.76 276.554 35.04 277.221 33.6H284.501C284.128 35.0667 283.448 36.3867 282.461 37.56C281.501 38.7333 280.288 39.6533 278.821 40.32C277.354 40.9867 275.714 41.32 273.901 41.32C271.714 41.32 269.768 40.8533 268.061 39.92C266.354 38.9867 265.021 37.6533 264.061 35.92C263.101 34.1867 262.621 32.16 262.621 29.84C262.621 27.52 263.088 25.4933 264.021 23.76C264.981 22.0267 266.314 20.6933 268.021 19.76C269.728 18.8267 271.688 18.36 273.901 18.36C276.061 18.36 277.981 18.8133 279.661 19.72C281.341 20.6267 282.648 21.92 283.581 23.6C284.541 25.28 285.021 27.24 285.021 29.48ZM278.021 27.68C278.021 26.5067 277.621 25.5733 276.821 24.88C276.021 24.1867 275.021 23.84 273.821 23.84C272.674 23.84 271.701 24.1733 270.901 24.84C270.128 25.5067 269.648 26.4533 269.461 27.68H278.021Z" fill="#14142B"/>
<path fill-rule="evenodd" clip-rule="evenodd" d="M15.4907 6.45706C21.3751 3.18098 28.6249 3.18098 34.5093 6.45706L40.4907 9.78717C46.3751 13.0632 50 19.1177 50 25.6699V32.3301C50 38.8822 46.3751 44.9367 40.4907 48.2128L34.5093 51.5429C28.6249 54.819 21.3751 54.819 15.4907 51.5429L9.5093 48.2128C3.62492 44.9367 0 38.8822 0 32.3301V25.6699C0 19.1177 3.62493 13.0632 9.5093 9.78717L15.4907 6.45706ZM24.758 14.7869C21.554 14.6216 21.5539 14.623 21.5539 14.6244L21.5537 14.6273L21.5534 14.6336L21.5527 14.6482L21.5512 14.6845C21.5501 14.7119 21.549 14.7457 21.5481 14.7855C21.5462 14.8651 21.5451 14.9692 21.5464 15.0951C21.5489 15.3463 21.5613 15.6876 21.5979 16.0974C21.6707 16.9104 21.8424 18.0297 22.2453 19.266C23.0561 21.7538 24.8683 24.8665 28.7659 26.6794C30.5989 27.5319 31.4811 28.9573 31.9321 30.3412C32.1601 31.0408 32.2611 31.6908 32.3033 32.1631C32.3242 32.396 32.3299 32.5763 32.331 32.6861C32.3316 32.7407 32.331 32.777 32.3306 32.7926L32.3305 32.7999L32.3308 32.7912L32.3312 32.7837L32.3314 32.7791L32.3316 32.7766C32.3316 32.7753 32.3317 32.7739 35.5357 32.9392C38.7397 33.1045 38.7398 33.1032 38.7399 33.1018L38.74 33.0988L38.7404 33.0925L38.7411 33.078L38.7426 33.0416C38.7437 33.0142 38.7448 32.9804 38.7457 32.9406C38.7475 32.861 38.7487 32.757 38.7474 32.6311C38.7448 32.3798 38.7325 32.0385 38.6958 31.6287C38.6231 30.8157 38.4513 29.6965 38.0484 28.4601C37.2377 25.9723 35.4255 22.8596 31.5278 21.0467C29.6949 20.1942 28.8126 18.7688 28.3616 17.3849C28.1337 16.6853 28.0327 16.0353 27.9904 15.563C27.9696 15.3301 27.9638 15.1498 27.9627 15.0401C27.9622 14.9854 27.9627 14.9492 27.9631 14.9336C27.9633 14.9258 27.9634 14.9232 27.9633 14.9262L27.9629 14.9349L27.9626 14.9425L27.9623 14.9471L27.9622 14.9496C27.9621 14.9509 27.9621 14.9522 24.758 14.7869ZM14.2819 25.2667C11.0779 25.1014 11.0778 25.1027 11.0777 25.1041L11.0776 25.1071L11.0772 25.1134L11.0765 25.1279L11.075 25.1643C11.0739 25.1917 11.0728 25.2255 11.0719 25.2653C11.0701 25.3449 11.0689 25.4489 11.0702 25.5748C11.0728 25.8261 11.0851 26.1674 11.1218 26.5772C11.1945 27.3902 11.3663 28.5094 11.7692 29.7458C12.58 32.2336 14.3921 35.3463 18.2898 37.1592C20.1227 38.0117 21.005 39.4371 21.456 40.821C21.6839 41.5205 21.7849 42.1706 21.8272 42.6429C21.848 42.8757 21.8538 43.0561 21.8549 43.1658C21.8554 43.2204 21.8548 43.2567 21.8545 43.2723C21.8543 43.2801 21.8542 43.2826 21.8543 43.2797L21.8547 43.271L21.855 43.2634L21.8553 43.2588L21.8554 43.2563C21.8555 43.255 21.8555 43.2537 25.0596 43.419C28.2636 43.5843 28.2637 43.5829 28.2637 43.5815L28.2639 43.5786L28.2642 43.5722L28.2649 43.5577L28.2664 43.5214C28.2675 43.494 28.2686 43.4602 28.2695 43.4204C28.2714 43.3408 28.2725 43.2367 28.2712 43.1108C28.2687 42.8596 28.2563 42.5182 28.2197 42.1085C28.1469 41.2955 27.9752 40.1762 27.5723 38.9399C26.7615 36.4521 24.9493 33.3394 21.0517 31.5265C19.2187 30.6739 18.3365 29.2486 17.8855 27.8647C17.6575 27.1651 17.5565 26.5151 17.5143 26.0428C17.4934 25.8099 17.4877 25.6296 17.4866 25.5198C17.486 25.4652 17.4866 25.429 17.487 25.4133L17.4871 25.406L17.4868 25.4147L17.4864 25.4222L17.4862 25.4268L17.486 25.4293C17.486 25.4306 17.4859 25.432 14.2819 25.2667Z" fill="#14142B"/>
</svg>
