<svg width="204" height="48" viewBox="0 0 204 48" fill="none" xmlns="http://www.w3.org/2000/svg">
<path fill-rule="evenodd" clip-rule="evenodd" d="M15.1809 2.35878C20.9476 -0.786261 28.0524 -0.78626 33.8191 2.35878L39.6809 5.55568C45.4476 8.70072 49 14.513 49 20.8031V27.1969C49 33.487 45.4476 39.2993 39.6809 42.4443L33.8191 45.6412C28.0524 48.7862 20.9476 48.7862 15.1809 45.6412L9.31911 42.4443C3.55243 39.2993 0 33.487 0 27.1969V20.8031C0 14.513 3.55243 8.70073 9.31911 5.55568L15.1809 2.35878ZM24.265 10.3555C21.125 10.1968 21.125 10.1981 21.1249 10.1994L21.1248 10.2023L21.1244 10.2084L21.1238 10.2223L21.1223 10.2572C21.1212 10.2835 21.1201 10.3159 21.1192 10.3541C21.1174 10.4306 21.1163 10.5305 21.1176 10.6513C21.1201 10.8925 21.1322 11.2202 21.1681 11.6136C21.2394 12.3941 21.4077 13.4685 21.8026 14.6554C22.5971 17.0437 24.373 20.0319 28.1927 21.7723C29.989 22.5907 30.8536 23.9591 31.2956 25.2877C31.519 25.9592 31.618 26.5833 31.6594 27.0367C31.6798 27.2602 31.6854 27.4333 31.6865 27.5387C31.6871 27.5911 31.6865 27.6259 31.6861 27.6409C31.6861 27.6451 31.686 27.6477 31.6859 27.6487C31.6859 27.6495 31.6859 27.6492 31.686 27.648L31.6863 27.6396L31.6867 27.6324L31.6869 27.628L31.687 27.6256C31.6871 27.6243 31.6872 27.623 34.8271 27.7817C37.9671 27.9404 37.9671 27.9391 37.9672 27.9378L37.9674 27.9349L37.9677 27.9288L37.9684 27.9149L37.9699 27.88C37.9709 27.8537 37.972 27.8213 37.9729 27.7831C37.9747 27.7066 37.9758 27.6067 37.9746 27.4859C37.972 27.2447 37.96 26.917 37.924 26.5236C37.8527 25.7431 37.6844 24.6687 37.2896 23.4818C36.495 21.0935 34.7191 18.1053 30.8994 16.3649C29.1031 15.5465 28.2385 14.1781 27.7965 12.8495C27.5731 12.178 27.4741 11.5539 27.4327 11.1005C27.4123 10.877 27.4067 10.7039 27.4056 10.5985C27.405 10.5461 27.4056 10.5113 27.406 10.4963C27.4061 10.4888 27.4063 10.4864 27.4062 10.4892L27.4058 10.4976L27.4054 10.5048L27.4052 10.5092L27.4051 10.5116C27.405 10.5129 27.4049 10.5142 24.265 10.3555ZM13.9975 20.4161C10.8576 20.2574 10.8575 20.2587 10.8574 20.2601L10.8573 20.2629L10.857 20.269L10.8563 20.2829L10.8548 20.3178C10.8538 20.3441 10.8527 20.3765 10.8518 20.4148C10.85 20.4912 10.8488 20.5911 10.8501 20.7119C10.8526 20.9531 10.8647 21.2808 10.9006 21.6742C10.9719 22.4547 11.1402 23.5292 11.5351 24.716C12.3296 27.1043 14.1056 30.0925 17.9253 31.8329C19.7216 32.6513 20.5862 34.0197 21.0281 35.3483C21.2516 36.0198 21.3505 36.6439 21.3919 37.0973C21.4124 37.3208 21.418 37.4939 21.4191 37.5993C21.4196 37.6517 21.419 37.6865 21.4187 37.7015C21.4185 37.709 21.4184 37.7114 21.4185 37.7086L21.4189 37.7002L21.4192 37.693L21.4195 37.6886L21.4196 37.6862C21.4197 37.6849 21.4197 37.6836 24.5597 37.8423C27.6996 38.001 27.6997 37.9997 27.6998 37.9984L27.6999 37.9955L27.7002 37.9895L27.7009 37.9755L27.7024 37.9406C27.7034 37.9143 27.7045 37.8819 27.7054 37.8437C27.7072 37.7673 27.7084 37.6674 27.7071 37.5465C27.7046 37.3053 27.6925 36.9776 27.6566 36.5842C27.5853 35.8037 27.417 34.7293 27.0221 33.5424C26.2276 31.1541 24.4516 28.1659 20.6319 26.4255C18.8356 25.6071 17.971 24.2387 17.5291 22.9102C17.3056 22.2386 17.2067 21.6146 17.1653 21.1612C17.1449 20.9376 17.1392 20.7645 17.1381 20.6591C17.1376 20.6067 17.1382 20.5719 17.1385 20.5569L17.1387 20.5499L17.1383 20.5582L17.138 20.5655L17.1377 20.5699L17.1376 20.5723C17.1375 20.5735 17.1375 20.5748 13.9975 20.4161Z" fill="#610BEF"/>
<path d="M70.94 28.34H65.38L64.46 31H61.52L66.54 17.02H69.8L74.82 31H71.86L70.94 28.34ZM70.18 26.1L68.16 20.26L66.14 26.1H70.18ZM80.2464 21.52C80.6064 21.0133 81.0997 20.5933 81.7264 20.26C82.3664 19.9133 83.0931 19.74 83.9064 19.74C84.8531 19.74 85.7064 19.9733 86.4664 20.44C87.2397 20.9067 87.8464 21.5733 88.2864 22.44C88.7397 23.2933 88.9664 24.2867 88.9664 25.42C88.9664 26.5533 88.7397 27.56 88.2864 28.44C87.8464 29.3067 87.2397 29.98 86.4664 30.46C85.7064 30.94 84.8531 31.18 83.9064 31.18C83.0931 31.18 82.3731 31.0133 81.7464 30.68C81.1331 30.3467 80.6331 29.9267 80.2464 29.42V36.28H77.4464V19.92H80.2464V21.52ZM86.1064 25.42C86.1064 24.7533 85.9664 24.18 85.6864 23.7C85.4197 23.2067 85.0597 22.8333 84.6064 22.58C84.1664 22.3267 83.6864 22.2 83.1664 22.2C82.6597 22.2 82.1797 22.3333 81.7264 22.6C81.2864 22.8533 80.9264 23.2267 80.6464 23.72C80.3797 24.2133 80.2464 24.7933 80.2464 25.46C80.2464 26.1267 80.3797 26.7067 80.6464 27.2C80.9264 27.6933 81.2864 28.0733 81.7264 28.34C82.1797 28.5933 82.6597 28.72 83.1664 28.72C83.6864 28.72 84.1664 28.5867 84.6064 28.32C85.0597 28.0533 85.4197 27.6733 85.6864 27.18C85.9664 26.6867 86.1064 26.1 86.1064 25.42ZM94.5511 21.52C94.9111 21.0133 95.4044 20.5933 96.0311 20.26C96.6711 19.9133 97.3978 19.74 98.2111 19.74C99.1578 19.74 100.011 19.9733 100.771 20.44C101.544 20.9067 102.151 21.5733 102.591 22.44C103.044 23.2933 103.271 24.2867 103.271 25.42C103.271 26.5533 103.044 27.56 102.591 28.44C102.151 29.3067 101.544 29.98 100.771 30.46C100.011 30.94 99.1578 31.18 98.2111 31.18C97.3978 31.18 96.6778 31.0133 96.0511 30.68C95.4378 30.3467 94.9378 29.9267 94.5511 29.42V36.28H91.7511V19.92H94.5511V21.52ZM100.411 25.42C100.411 24.7533 100.271 24.18 99.9911 23.7C99.7244 23.2067 99.3644 22.8333 98.9111 22.58C98.4711 22.3267 97.9911 22.2 97.4711 22.2C96.9644 22.2 96.4844 22.3333 96.0311 22.6C95.5911 22.8533 95.2311 23.2267 94.9511 23.72C94.6844 24.2133 94.5511 24.7933 94.5511 25.46C94.5511 26.1267 94.6844 26.7067 94.9511 27.2C95.2311 27.6933 95.5911 28.0733 96.0311 28.34C96.4844 28.5933 96.9644 28.72 97.4711 28.72C97.9911 28.72 98.4711 28.5867 98.9111 28.32C99.3644 28.0533 99.7244 27.6733 99.9911 27.18C100.271 26.6867 100.411 26.1 100.411 25.42ZM112.196 19.76C113.516 19.76 114.582 20.18 115.396 21.02C116.209 21.8467 116.616 23.0067 116.616 24.5V31H113.816V24.88C113.816 24 113.596 23.3267 113.156 22.86C112.716 22.38 112.116 22.14 111.356 22.14C110.582 22.14 109.969 22.38 109.516 22.86C109.076 23.3267 108.856 24 108.856 24.88V31H106.056V19.92H108.856V21.3C109.229 20.82 109.702 20.4467 110.276 20.18C110.862 19.9 111.502 19.76 112.196 19.76ZM119.308 25.42C119.308 24.3 119.528 23.3067 119.968 22.44C120.422 21.5733 121.028 20.9067 121.788 20.44C122.562 19.9733 123.422 19.74 124.368 19.74C125.195 19.74 125.915 19.9067 126.528 20.24C127.155 20.5733 127.655 20.9933 128.028 21.5V19.92H130.848V31H128.028V29.38C127.668 29.9 127.168 30.3333 126.528 30.68C125.902 31.0133 125.175 31.18 124.348 31.18C123.415 31.18 122.562 30.94 121.788 30.46C121.028 29.98 120.422 29.3067 119.968 28.44C119.528 27.56 119.308 26.5533 119.308 25.42ZM128.028 25.46C128.028 24.78 127.895 24.2 127.628 23.72C127.362 23.2267 127.002 22.8533 126.548 22.6C126.095 22.3333 125.608 22.2 125.088 22.2C124.568 22.2 124.088 22.3267 123.648 22.58C123.208 22.8333 122.848 23.2067 122.568 23.7C122.302 24.18 122.168 24.7533 122.168 25.42C122.168 26.0867 122.302 26.6733 122.568 27.18C122.848 27.6733 123.208 28.0533 123.648 28.32C124.102 28.5867 124.582 28.72 125.088 28.72C125.608 28.72 126.095 28.5933 126.548 28.34C127.002 28.0733 127.362 27.7 127.628 27.22C127.895 26.7267 128.028 26.14 128.028 25.46ZM148.093 19.76C149.453 19.76 150.546 20.18 151.373 21.02C152.213 21.8467 152.633 23.0067 152.633 24.5V31H149.833V24.88C149.833 24.0133 149.613 23.3533 149.173 22.9C148.733 22.4333 148.133 22.2 147.373 22.2C146.613 22.2 146.006 22.4333 145.553 22.9C145.113 23.3533 144.893 24.0133 144.893 24.88V31H142.093V24.88C142.093 24.0133 141.873 23.3533 141.433 22.9C140.993 22.4333 140.393 22.2 139.633 22.2C138.86 22.2 138.246 22.4333 137.793 22.9C137.353 23.3533 137.133 24.0133 137.133 24.88V31H134.333V19.92H137.133V21.26C137.493 20.7933 137.953 20.4267 138.513 20.16C139.086 19.8933 139.713 19.76 140.393 19.76C141.26 19.76 142.033 19.9467 142.713 20.32C143.393 20.68 143.92 21.2 144.293 21.88C144.653 21.24 145.173 20.7267 145.853 20.34C146.546 19.9533 147.293 19.76 148.093 19.76ZM166.34 25.22C166.34 25.62 166.313 25.98 166.26 26.3H158.16C158.227 27.1 158.507 27.7267 159 28.18C159.493 28.6333 160.1 28.86 160.82 28.86C161.86 28.86 162.6 28.4133 163.04 27.52H166.06C165.74 28.5867 165.127 29.4667 164.22 30.16C163.313 30.84 162.2 31.18 160.88 31.18C159.813 31.18 158.853 30.9467 158 30.48C157.16 30 156.5 29.3267 156.02 28.46C155.553 27.5933 155.32 26.5933 155.32 25.46C155.32 24.3133 155.553 23.3067 156.02 22.44C156.487 21.5733 157.14 20.9067 157.98 20.44C158.82 19.9733 159.787 19.74 160.88 19.74C161.933 19.74 162.873 19.9667 163.7 20.42C164.54 20.8733 165.187 21.52 165.64 22.36C166.107 23.1867 166.34 24.14 166.34 25.22ZM163.44 24.42C163.427 23.7 163.167 23.1267 162.66 22.7C162.153 22.26 161.533 22.04 160.8 22.04C160.107 22.04 159.52 22.2533 159.04 22.68C158.573 23.0933 158.287 23.6733 158.18 24.42H163.44Z" fill="#610BEF"/>
</svg>
